<mxfile host="Electron" modified="2024-06-28T04:29:38.696Z" agent="Mozilla/5.0 (Windows NT 10.0; Win64; x64) AppleWebKit/537.36 (KHTML, like Gecko) draw.io/24.6.1 Chrome/124.0.6367.207 Electron/30.0.6 Safari/537.36" etag="Z48c8hP1xHVx8E0n0PTF" version="24.6.1" type="device">
  <diagram name="Страница — 1" id="mygIik3exSe2AFjMWLXu">
    <mxGraphModel dx="1421" dy="815" grid="1" gridSize="10" guides="1" tooltips="1" connect="1" arrows="1" fold="1" page="1" pageScale="1" pageWidth="827" pageHeight="1169" math="0" shadow="0">
      <root>
        <mxCell id="0" />
        <mxCell id="1" parent="0" />
        <mxCell id="nBs9VtFqDJfL71Tbkj9H-1" value="System" style="rounded=0;whiteSpace=wrap;html=1;strokeColor=#FF8000;strokeWidth=4;" vertex="1" parent="1">
          <mxGeometry x="10" y="1099" width="110" height="50" as="geometry" />
        </mxCell>
        <mxCell id="nBs9VtFqDJfL71Tbkj9H-2" value="Actor" style="shape=umlActor;verticalLabelPosition=bottom;verticalAlign=top;html=1;outlineConnect=0;strokeColor=#FF8000;strokeWidth=4;" vertex="1" parent="1">
          <mxGeometry x="150" y="1080" width="30" height="60" as="geometry" />
        </mxCell>
        <mxCell id="nBs9VtFqDJfL71Tbkj9H-3" value="Use case" style="ellipse;whiteSpace=wrap;html=1;fontColor=#000000;strokeColor=#FF8000;strokeWidth=4;" vertex="1" parent="1">
          <mxGeometry x="220" y="1089.5" width="110" height="69" as="geometry" />
        </mxCell>
        <mxCell id="nBs9VtFqDJfL71Tbkj9H-5" value="" style="endArrow=none;html=1;edgeStyle=orthogonalEdgeStyle;rounded=0;strokeColor=#FF8000;strokeWidth=4;" edge="1" parent="1">
          <mxGeometry relative="1" as="geometry">
            <mxPoint x="360" y="1104" as="sourcePoint" />
            <mxPoint x="440" y="1104" as="targetPoint" />
          </mxGeometry>
        </mxCell>
        <mxCell id="nBs9VtFqDJfL71Tbkj9H-8" value="Relationship" style="html=1;verticalAlign=bottom;endArrow=open;dashed=1;endSize=8;curved=0;rounded=0;strokeColor=#FF8000;strokeWidth=4;" edge="1" parent="1">
          <mxGeometry y="4" relative="1" as="geometry">
            <mxPoint x="360" y="1134" as="sourcePoint" />
            <mxPoint x="440" y="1134" as="targetPoint" />
            <mxPoint as="offset" />
          </mxGeometry>
        </mxCell>
        <mxCell id="nBs9VtFqDJfL71Tbkj9H-12" value="&lt;font color=&quot;#00cc00&quot; style=&quot;font-size: 15px;&quot;&gt;&lt;b style=&quot;&quot;&gt;Application&lt;/b&gt;&lt;/font&gt;" style="verticalAlign=top;align=center;overflow=fill;html=1;whiteSpace=wrap;" vertex="1" parent="1">
          <mxGeometry x="120" y="40" width="560" height="690" as="geometry" />
        </mxCell>
        <mxCell id="nBs9VtFqDJfL71Tbkj9H-13" value="User" style="shape=umlActor;verticalLabelPosition=bottom;verticalAlign=top;html=1;strokeColor=#FF8000;strokeWidth=2;" vertex="1" parent="1">
          <mxGeometry x="20" y="190" width="60" height="120" as="geometry" />
        </mxCell>
        <mxCell id="nBs9VtFqDJfL71Tbkj9H-14" value="Server" style="image;html=1;image=img/lib/clip_art/networking/Cloud_Computer_128x128.png" vertex="1" parent="1">
          <mxGeometry x="697" y="530" width="130" height="140" as="geometry" />
        </mxCell>
        <mxCell id="nBs9VtFqDJfL71Tbkj9H-17" value="Admin" style="shape=umlActor;verticalLabelPosition=bottom;verticalAlign=top;html=1;" vertex="1" parent="1">
          <mxGeometry x="750" y="400" width="60" height="120" as="geometry" />
        </mxCell>
        <mxCell id="nBs9VtFqDJfL71Tbkj9H-22" value="Login" style="ellipse;whiteSpace=wrap;html=1;" vertex="1" parent="1">
          <mxGeometry x="140" y="140" width="105" height="50" as="geometry" />
        </mxCell>
        <mxCell id="nBs9VtFqDJfL71Tbkj9H-23" value="Update Tasks" style="ellipse;whiteSpace=wrap;html=1;" vertex="1" parent="1">
          <mxGeometry x="140" y="250" width="105" height="50" as="geometry" />
        </mxCell>
        <mxCell id="nBs9VtFqDJfL71Tbkj9H-26" value="" style="endArrow=none;html=1;rounded=0;entryX=0.501;entryY=0.539;entryDx=0;entryDy=0;entryPerimeter=0;exitX=0;exitY=0.5;exitDx=0;exitDy=0;" edge="1" parent="1" source="nBs9VtFqDJfL71Tbkj9H-22" target="nBs9VtFqDJfL71Tbkj9H-13">
          <mxGeometry width="50" height="50" relative="1" as="geometry">
            <mxPoint x="140" y="310" as="sourcePoint" />
            <mxPoint x="450" y="400" as="targetPoint" />
          </mxGeometry>
        </mxCell>
        <mxCell id="nBs9VtFqDJfL71Tbkj9H-28" value="" style="endArrow=none;html=1;rounded=0;exitX=0.501;exitY=0.545;exitDx=0;exitDy=0;exitPerimeter=0;entryX=0;entryY=0.5;entryDx=0;entryDy=0;" edge="1" parent="1" source="nBs9VtFqDJfL71Tbkj9H-13" target="nBs9VtFqDJfL71Tbkj9H-23">
          <mxGeometry width="50" height="50" relative="1" as="geometry">
            <mxPoint x="110" y="280" as="sourcePoint" />
            <mxPoint x="160" y="230" as="targetPoint" />
          </mxGeometry>
        </mxCell>
        <mxCell id="nBs9VtFqDJfL71Tbkj9H-29" value="GetAllTasks" style="ellipse;whiteSpace=wrap;html=1;" vertex="1" parent="1">
          <mxGeometry x="542.5" y="560" width="120" height="55" as="geometry" />
        </mxCell>
        <mxCell id="nBs9VtFqDJfL71Tbkj9H-30" value="CheckLastUpdate" style="ellipse;whiteSpace=wrap;html=1;" vertex="1" parent="1">
          <mxGeometry x="540" y="650" width="125" height="60" as="geometry" />
        </mxCell>
        <mxCell id="nBs9VtFqDJfL71Tbkj9H-33" value="" style="endArrow=none;html=1;rounded=0;entryX=0;entryY=0.5;entryDx=0;entryDy=0;exitX=1;exitY=0.5;exitDx=0;exitDy=0;" edge="1" parent="1" source="nBs9VtFqDJfL71Tbkj9H-29" target="nBs9VtFqDJfL71Tbkj9H-14">
          <mxGeometry width="50" height="50" relative="1" as="geometry">
            <mxPoint x="400" y="450" as="sourcePoint" />
            <mxPoint x="450" y="400" as="targetPoint" />
          </mxGeometry>
        </mxCell>
        <mxCell id="nBs9VtFqDJfL71Tbkj9H-34" value="" style="endArrow=none;html=1;rounded=0;entryX=-0.006;entryY=0.612;entryDx=0;entryDy=0;entryPerimeter=0;exitX=1;exitY=0.5;exitDx=0;exitDy=0;" edge="1" parent="1" source="nBs9VtFqDJfL71Tbkj9H-30" target="nBs9VtFqDJfL71Tbkj9H-14">
          <mxGeometry width="50" height="50" relative="1" as="geometry">
            <mxPoint x="400" y="450" as="sourcePoint" />
            <mxPoint x="450" y="400" as="targetPoint" />
          </mxGeometry>
        </mxCell>
        <mxCell id="nBs9VtFqDJfL71Tbkj9H-35" value="Verify password" style="ellipse;whiteSpace=wrap;html=1;" vertex="1" parent="1">
          <mxGeometry x="300" y="90" width="105" height="50" as="geometry" />
        </mxCell>
        <mxCell id="nBs9VtFqDJfL71Tbkj9H-36" value="Display login error" style="ellipse;whiteSpace=wrap;html=1;" vertex="1" parent="1">
          <mxGeometry x="300" y="190" width="105" height="50" as="geometry" />
        </mxCell>
        <mxCell id="nBs9VtFqDJfL71Tbkj9H-37" value="&amp;lt;&amp;lt;include&amp;gt;&amp;gt;" style="endArrow=open;endSize=12;dashed=1;html=1;rounded=0;exitX=1;exitY=0.5;exitDx=0;exitDy=0;entryX=0;entryY=0.5;entryDx=0;entryDy=0;" edge="1" parent="1" source="nBs9VtFqDJfL71Tbkj9H-22" target="nBs9VtFqDJfL71Tbkj9H-35">
          <mxGeometry x="-0.0165" width="160" relative="1" as="geometry">
            <mxPoint x="330" y="250" as="sourcePoint" />
            <mxPoint x="490" y="250" as="targetPoint" />
            <mxPoint as="offset" />
          </mxGeometry>
        </mxCell>
        <mxCell id="nBs9VtFqDJfL71Tbkj9H-38" value="&amp;lt;&amp;lt;extends&amp;gt;&amp;gt;" style="endArrow=open;endSize=12;dashed=1;html=1;rounded=0;entryX=1;entryY=0.5;entryDx=0;entryDy=0;exitX=0;exitY=0.5;exitDx=0;exitDy=0;" edge="1" parent="1" source="nBs9VtFqDJfL71Tbkj9H-36" target="nBs9VtFqDJfL71Tbkj9H-22">
          <mxGeometry x="-0.0075" width="160" relative="1" as="geometry">
            <mxPoint x="340" y="430" as="sourcePoint" />
            <mxPoint x="500" y="430" as="targetPoint" />
            <mxPoint as="offset" />
          </mxGeometry>
        </mxCell>
        <mxCell id="nBs9VtFqDJfL71Tbkj9H-39" value="Display New Tasks" style="ellipse;whiteSpace=wrap;html=1;" vertex="1" parent="1">
          <mxGeometry x="305" y="280" width="100" height="60" as="geometry" />
        </mxCell>
        <mxCell id="nBs9VtFqDJfL71Tbkj9H-40" value="&amp;lt;&amp;lt;include&amp;gt;&amp;gt;" style="endArrow=open;endSize=12;dashed=1;html=1;rounded=0;exitX=1;exitY=0.5;exitDx=0;exitDy=0;entryX=0;entryY=0.5;entryDx=0;entryDy=0;" edge="1" parent="1" source="nBs9VtFqDJfL71Tbkj9H-23">
          <mxGeometry x="-0.0165" width="160" relative="1" as="geometry">
            <mxPoint x="242.49999999999955" y="460" as="sourcePoint" />
            <mxPoint x="307.5" y="310" as="targetPoint" />
            <mxPoint as="offset" />
          </mxGeometry>
        </mxCell>
        <mxCell id="nBs9VtFqDJfL71Tbkj9H-42" value="" style="rounded=0;whiteSpace=wrap;html=1;" vertex="1" parent="1">
          <mxGeometry x="552.5" y="390" width="100" height="130" as="geometry" />
        </mxCell>
        <mxCell id="nBs9VtFqDJfL71Tbkj9H-41" value="Local database" style="image;html=1;image=img/lib/clip_art/computers/Database_128x128.png;movable=1;resizable=1;rotatable=1;deletable=1;editable=1;locked=0;connectable=1;" vertex="1" parent="1">
          <mxGeometry x="562.5" y="400" width="80" height="80" as="geometry" />
        </mxCell>
      </root>
    </mxGraphModel>
  </diagram>
</mxfile>
